<svg width="120" height="24" viewBox="0 0 120 24" fill="none" xmlns="http://www.w3.org/2000/svg">
<path fill-rule="evenodd" clip-rule="evenodd" d="M33.8686 4.68422C33.7396 4.69789 33.5353 4.72376 33.4144 4.74175C33.2935 4.75973 33.0065 4.8185 32.7766 4.87232C32.5467 4.92617 32.209 5.02767 32.0261 5.0979C31.8432 5.16812 31.5756 5.29092 31.4314 5.37078C31.2872 5.45062 31.0777 5.58139 30.9659 5.66137C30.8541 5.74135 30.659 5.90701 30.5323 6.02952C30.4056 6.15201 30.2267 6.34938 30.1349 6.4681C30.043 6.58681 29.9184 6.76461 29.8581 6.86318C29.7977 6.96178 29.6779 7.18842 29.5918 7.36683C29.5058 7.54526 29.3817 7.85669 29.3161 8.05892C29.2506 8.26113 29.1513 8.65613 29.0956 8.9367C29.0398 9.21725 28.9803 9.54393 28.9634 9.66264C28.9465 9.78136 28.9192 10.0339 28.9029 10.2238C28.8865 10.4138 28.8587 10.9124 28.8409 11.3319C28.8232 11.7513 28.817 12.36 28.8272 12.6845C28.8374 13.009 28.8588 13.4882 28.8748 13.7494C28.8907 14.0105 28.9236 14.3861 28.9478 14.584C28.9719 14.7818 29.0375 15.1682 29.0936 15.4426C29.1496 15.717 29.2557 16.1224 29.3292 16.3434C29.4027 16.5644 29.5258 16.8774 29.6026 17.039C29.6793 17.2005 29.8094 17.4392 29.8916 17.5693C29.9738 17.6995 30.0886 17.8678 30.1467 17.9433C30.2048 18.0189 30.3672 18.1955 30.5075 18.3357C30.6478 18.476 30.8681 18.6655 30.9971 18.7569C31.126 18.8482 31.3567 18.9884 31.5098 19.0683C31.6629 19.1481 31.92 19.2646 32.0812 19.3271C32.2424 19.3896 32.518 19.4752 32.6938 19.5174C32.8696 19.5596 33.1597 19.6187 33.3384 19.6487C33.5172 19.6788 33.8678 19.7188 34.1176 19.7378C34.3958 19.7588 34.7933 19.7653 35.1432 19.7544C35.4574 19.7446 35.8398 19.7233 35.9929 19.7068C36.146 19.6904 36.469 19.6375 36.7108 19.5893C36.9525 19.541 37.2953 19.4541 37.4726 19.3962C37.6499 19.3382 37.944 19.2164 38.1262 19.1255C38.3084 19.0346 38.5655 18.8856 38.6976 18.7944C38.8296 18.7032 39.07 18.4989 39.2317 18.3403C39.3934 18.1817 39.606 17.9354 39.7042 17.7929C39.8023 17.6504 39.9616 17.3785 40.0582 17.1885C40.1547 16.9986 40.2885 16.6862 40.3554 16.4944C40.4223 16.3026 40.5222 15.9448 40.5773 15.6994C40.6325 15.454 40.6977 15.1188 40.7224 14.9545C40.747 14.7903 40.7884 14.4228 40.8144 14.1379C40.8421 13.834 40.8683 13.1588 40.8778 12.5046L40.8938 11.3894H37.7543H34.6149L34.6226 12.2312L34.6304 13.073L36.8252 13.0804L39.0199 13.0878L39.0005 13.4689C38.9897 13.6786 38.9608 14.0249 38.936 14.2386C38.9113 14.4523 38.8652 14.7779 38.8337 14.9621C38.8021 15.1463 38.7291 15.4507 38.6715 15.6384C38.6139 15.8262 38.5101 16.0979 38.4409 16.2423C38.3716 16.3867 38.2583 16.5875 38.1891 16.6884C38.1199 16.7894 37.976 16.9567 37.8695 17.0603C37.7629 17.1639 37.5738 17.3111 37.4492 17.3873C37.3246 17.4636 37.1207 17.5651 36.996 17.6128C36.8714 17.6606 36.6859 17.7232 36.5839 17.7521C36.4819 17.7809 36.2512 17.8275 36.0711 17.8556C35.8115 17.896 35.5621 17.9067 34.8648 17.907C34.1666 17.9073 33.9139 17.8967 33.6365 17.8556C33.4444 17.8272 33.1651 17.7655 33.0158 17.7185C32.8665 17.6716 32.6704 17.601 32.5801 17.5618C32.4897 17.5226 32.3263 17.4325 32.2169 17.3617C32.1075 17.2909 31.9354 17.1526 31.8344 17.0543C31.7334 16.9561 31.5869 16.7827 31.5088 16.669C31.4307 16.5553 31.3137 16.3464 31.2487 16.2048C31.1838 16.0632 31.0834 15.7862 31.0256 15.5894C30.9678 15.3926 30.895 15.0826 30.8639 14.9005C30.8328 14.7185 30.7861 14.3753 30.7601 14.1379C30.7284 13.8479 30.7079 13.3162 30.6978 12.5183C30.6882 11.7666 30.695 11.159 30.7161 10.8635C30.7344 10.6066 30.7691 10.2217 30.7931 10.008C30.8171 9.79431 30.8569 9.51587 30.8815 9.38924C30.9061 9.26261 30.9728 8.99711 31.0296 8.79925C31.0865 8.60139 31.1898 8.32137 31.2592 8.17695C31.3286 8.03256 31.4423 7.83182 31.5118 7.73086C31.5813 7.62993 31.7115 7.47153 31.8011 7.37889C31.8907 7.28625 32.0729 7.13927 32.2061 7.05224C32.3392 6.96524 32.5634 6.84954 32.7042 6.79521C32.845 6.74084 33.0389 6.67632 33.135 6.6518C33.2311 6.62728 33.4223 6.58909 33.5598 6.5669C33.6974 6.54474 34.0496 6.51089 34.3425 6.49173C34.7544 6.46473 34.99 6.4645 35.3834 6.49063C35.6629 6.50919 36.0441 6.55 36.2304 6.58126C36.4166 6.61254 36.6979 6.68337 36.8554 6.73868C37.013 6.794 37.2414 6.89496 37.363 6.96305C37.4846 7.03114 37.6818 7.17628 37.8011 7.28558C37.9205 7.39486 38.0761 7.56394 38.1468 7.6613C38.2175 7.75869 38.3356 7.96067 38.4091 8.11015C38.4826 8.25963 38.5889 8.5299 38.6454 8.71073C38.7018 8.89155 38.7761 9.1862 38.8105 9.36546C38.8593 9.62017 38.8833 9.69137 38.92 9.69116C38.9458 9.69102 39.3164 9.63951 39.7435 9.57668C40.1705 9.51385 40.5638 9.45491 40.6175 9.4457C40.7137 9.42915 40.7147 9.42746 40.6954 9.30837C40.6847 9.24206 40.63 8.98221 40.574 8.73096C40.5179 8.47968 40.4138 8.11271 40.3425 7.91546C40.2713 7.7182 40.1545 7.43622 40.0829 7.28887C40.0114 7.14148 39.8777 6.90624 39.7858 6.76608C39.6938 6.62592 39.5522 6.43356 39.471 6.33859C39.3898 6.24362 39.23 6.0775 39.1159 5.96943C39.0018 5.86136 38.8068 5.7023 38.6828 5.61593C38.5587 5.52956 38.3478 5.40201 38.214 5.33245C38.0802 5.26289 37.8377 5.15356 37.6751 5.08946C37.5124 5.02537 37.2158 4.93319 37.0158 4.88461C36.8158 4.83603 36.4808 4.76946 36.2713 4.73671C35.9604 4.6881 35.726 4.6755 34.9967 4.66827C34.5051 4.66341 33.9975 4.67057 33.8686 4.68422ZM46.1087 10.9793L46.1165 16.872L46.1822 17.0989C46.2183 17.2237 46.2996 17.4408 46.3628 17.5814C46.426 17.7221 46.5542 17.9415 46.6478 18.0692C46.7413 18.1968 46.9122 18.3892 47.0275 18.4968C47.1428 18.6044 47.3196 18.7474 47.4203 18.8146C47.5211 18.8818 47.7112 18.9856 47.8428 19.0453C47.9745 19.1051 48.1343 19.1688 48.1981 19.1869C48.2619 19.205 48.4195 19.2387 48.5485 19.2618C48.7463 19.2972 49.4008 19.3038 52.7458 19.3038L56.7088 19.3038V18.4548V17.6058L52.6579 17.6057C49.9578 17.6056 48.5707 17.5956 48.4979 17.5757C48.4379 17.5594 48.3325 17.5038 48.2637 17.4523C48.1846 17.393 48.1036 17.2921 48.0432 17.1775L47.9478 16.9964V15.0419V13.0874H51.6397H55.3317V12.2384V11.3894H51.6397H47.9478V9.08714V6.78487L52.321 6.77757L56.6942 6.77028L56.702 5.92848L56.7097 5.08667H51.4053H46.1008L46.1087 10.9793ZM60.225 5.93562V6.78467H62.7595H65.2941V13.0443V19.3038H66.2171H67.1401V13.0443V6.78467H69.6564C71.7528 6.78467 72.1782 6.77808 72.206 6.74519C72.2296 6.71724 72.2371 6.47129 72.2316 5.90338L72.2238 5.10106L66.2244 5.09381L60.225 5.08653V5.93562ZM76.6043 12.196V19.3053L80.9336 19.2966C84.9185 19.2886 85.285 19.2839 85.5412 19.2372C85.6943 19.2094 85.958 19.1404 86.1272 19.084C86.2964 19.0276 86.5524 18.9221 86.6961 18.8495C86.8398 18.7769 87.0573 18.6446 87.1796 18.5555C87.3018 18.4664 87.504 18.2853 87.6289 18.1531C87.7538 18.021 87.9178 17.8154 87.9934 17.6963C88.069 17.5772 88.1879 17.3548 88.2576 17.2021C88.3273 17.0493 88.4167 16.7995 88.4561 16.6469C88.4955 16.4943 88.5495 16.2237 88.5761 16.0457C88.613 15.7981 88.6212 15.5898 88.6107 15.1602C88.5992 14.6898 88.5843 14.5425 88.5189 14.2551C88.4759 14.0663 88.3869 13.7878 88.321 13.6363C88.2552 13.4848 88.1407 13.2702 88.0666 13.1594C87.9925 13.0486 87.818 12.8478 87.6788 12.7133C87.5396 12.5787 87.3383 12.4169 87.2316 12.3535C87.1249 12.2902 87.0372 12.2302 87.0366 12.2202C87.036 12.2102 87.1245 12.1455 87.2333 12.0764C87.3421 12.0073 87.5378 11.8471 87.6682 11.7204C87.7985 11.5938 87.9617 11.4076 88.0307 11.3067C88.0997 11.2057 88.2059 11.0174 88.2667 10.8881C88.3276 10.7589 88.4039 10.5684 88.4365 10.4648C88.4691 10.3612 88.5246 10.1092 88.5598 9.9048C88.6155 9.58169 88.6221 9.45796 88.6103 8.95754C88.6 8.5253 88.5807 8.30309 88.5326 8.06537C88.4974 7.89125 88.4479 7.68404 88.4225 7.6049C88.3971 7.52575 88.3293 7.35091 88.2718 7.21637C88.2142 7.08182 88.0964 6.85852 88.0099 6.72012C87.9234 6.58175 87.7453 6.35712 87.6142 6.22099C87.4829 6.08487 87.3024 5.91855 87.2129 5.85143C87.1234 5.78429 86.9579 5.67602 86.8451 5.61084C86.7323 5.54565 86.5147 5.4446 86.3616 5.38635C86.2085 5.32808 86.0173 5.26257 85.9368 5.24082C85.8562 5.21906 85.632 5.17549 85.4386 5.14397C85.099 5.08863 84.9429 5.08667 80.8457 5.08667H76.6043V12.196ZM93.9577 10.9505L93.966 16.8144L94.0591 17.131C94.1103 17.3051 94.2136 17.5636 94.2888 17.7055C94.3639 17.8474 94.5025 18.0611 94.5967 18.1804C94.6909 18.2997 94.8445 18.4631 94.938 18.5435C95.0315 18.6239 95.1756 18.7373 95.2582 18.7954C95.3408 18.8536 95.5339 18.9596 95.6874 19.031C95.8408 19.1024 96.0699 19.1896 96.1964 19.2249L96.4266 19.2891L100.507 19.2972L104.588 19.3052L104.58 18.4627L104.572 17.6202L100.47 17.6058L96.368 17.5915L96.2488 17.5288C96.1832 17.4943 96.0797 17.412 96.0189 17.3457C95.9579 17.2795 95.8863 17.1782 95.8597 17.1206C95.8162 17.0265 95.8113 16.8174 95.8113 15.0588V13.1018L99.4959 13.0945L103.18 13.0872V12.2384V11.3897L99.4959 11.3823L95.8113 11.375L95.8037 9.07994L95.7962 6.78487L100.184 6.77757L104.572 6.77028L104.58 5.92848L104.588 5.08667H99.2687H93.9495L93.9577 10.9505ZM109.363 10.8532C109.363 15.8366 109.369 16.6532 109.407 16.8661C109.431 17.0015 109.491 17.2213 109.54 17.3544C109.589 17.4875 109.687 17.6965 109.758 17.8188C109.829 17.9412 109.962 18.1318 110.054 18.2424C110.147 18.353 110.283 18.4962 110.357 18.5605C110.431 18.6249 110.583 18.7388 110.696 18.8136C110.809 18.8884 111.009 18.9972 111.141 19.0554C111.273 19.1136 111.484 19.19 111.61 19.2251L111.839 19.2891L115.92 19.2972L120 19.3052L119.992 18.4627L119.985 17.6202L115.883 17.6058C112.166 17.5928 111.771 17.587 111.678 17.5444C111.621 17.5185 111.52 17.4408 111.452 17.3717C111.384 17.3026 111.305 17.1943 111.276 17.131C111.228 17.0244 111.223 16.8695 111.215 15.0516L111.207 13.0874H114.9H118.593V12.2385V11.3897L114.908 11.3823L111.224 11.375L111.216 9.07994L111.209 6.78487L115.597 6.77757L119.985 6.77028L119.992 5.92848L120 5.08667H114.682H109.363V10.8532ZM85.1485 6.82914C85.3264 6.85962 85.495 6.91404 85.6841 7.00199C85.9106 7.10738 85.998 7.16839 86.1727 7.34277C86.3253 7.49507 86.4146 7.61517 86.4883 7.7671C86.5448 7.88366 86.6176 8.06488 86.6501 8.16978C86.6826 8.27471 86.7232 8.4602 86.7405 8.58199C86.7577 8.70376 86.7718 8.94324 86.7718 9.11413C86.7718 9.28505 86.7525 9.53339 86.7288 9.66607C86.7052 9.79874 86.6532 10.0014 86.6132 10.1163C86.5733 10.2313 86.5037 10.3932 86.4585 10.476C86.4132 10.5588 86.2906 10.711 86.1858 10.8141C86.0689 10.9291 85.9162 11.0419 85.7902 11.1063C85.6774 11.1639 85.4954 11.238 85.3857 11.2711C85.276 11.304 85.0452 11.3442 84.8729 11.3602C84.6844 11.3777 83.3485 11.3894 81.5196 11.3894L78.4796 11.3894V9.08705V6.78467H81.6842C84.4429 6.78467 84.925 6.79086 85.1485 6.82914ZM85.3603 13.1677C85.4784 13.2035 85.6564 13.2693 85.7559 13.3139C85.8554 13.3585 86.0114 13.4551 86.1027 13.5285C86.1939 13.602 86.3285 13.7507 86.4019 13.859C86.4776 13.9708 86.5727 14.1668 86.6221 14.3127C86.6699 14.454 86.725 14.6787 86.7446 14.812C86.7671 14.9661 86.7737 15.2021 86.7626 15.4595C86.7529 15.6824 86.7249 15.9457 86.7002 16.0447C86.6755 16.1437 86.6151 16.3269 86.5661 16.4517C86.5164 16.5782 86.4121 16.7629 86.3302 16.8691C86.2495 16.9738 86.1148 17.1132 86.0308 17.1789C85.9469 17.2446 85.7859 17.3404 85.673 17.3919C85.5602 17.4434 85.3888 17.5088 85.2921 17.5373C85.1282 17.5856 84.893 17.5898 81.798 17.5984L78.4796 17.6077V15.3469V13.086L81.8126 13.0943L85.1456 13.1026L85.3603 13.1677Z" fill="#303030"/>
<path fill-rule="evenodd" clip-rule="evenodd" d="M11.0134 0.0542826C10.8523 0.0828032 10.6545 0.128361 10.5739 0.155501C10.4933 0.18264 10.3208 0.253524 10.1905 0.313012C10.0603 0.3725 9.85068 0.48946 9.72478 0.572922C9.59887 0.656354 9.39212 0.821981 9.26533 0.940956C9.13858 1.0599 8.97062 1.2428 8.89215 1.34735C8.81369 1.45191 8.68977 1.64753 8.61678 1.78207C8.54379 1.91662 8.44472 2.14973 8.39661 2.30011C8.3485 2.45048 8.29201 2.65122 8.27109 2.74619C8.24937 2.8447 8.23302 3.1043 8.23302 3.35057C8.23302 3.59683 8.24937 3.85643 8.27109 3.95494C8.29201 4.04991 8.34873 4.25065 8.39714 4.40102C8.44554 4.5514 8.54476 4.78238 8.6176 4.91431C8.69044 5.04627 8.82605 5.25348 8.91893 5.37479C9.01182 5.49612 9.6628 6.15866 10.3656 6.84713L11.6433 8.0989L12.9365 6.81835C13.6478 6.11405 14.2986 5.44717 14.3828 5.33636C14.4669 5.22556 14.5896 5.03757 14.6554 4.91863C14.7213 4.79968 14.8145 4.58599 14.8627 4.44376C14.9108 4.30153 14.9709 4.08534 14.9963 3.96334C15.0248 3.82598 15.0423 3.59269 15.0423 3.35057C15.0423 3.10571 15.0249 2.87702 14.9959 2.73862C14.9703 2.61709 14.9162 2.41364 14.8756 2.28655C14.835 2.15946 14.7419 1.94088 14.6686 1.80081C14.5952 1.66074 14.4459 1.43251 14.3366 1.29362C14.2273 1.15476 14.0353 0.953245 13.9099 0.845839C13.7845 0.738434 13.592 0.593384 13.482 0.523507C13.372 0.45363 13.1646 0.345245 13.021 0.282649C12.8774 0.220054 12.6617 0.144162 12.5417 0.114029C12.4217 0.0838681 12.2223 0.0453608 12.0985 0.0284672C11.9748 0.0115735 11.7459 -0.00120471 11.59 9.03793e-05C11.434 0.00138547 11.1746 0.0257619 11.0134 0.0542826ZM12.1019 1.204C12.2725 1.2386 12.4626 1.30341 12.6247 1.38235C12.7664 1.45128 12.9749 1.58628 13.0943 1.68638C13.2125 1.78541 13.3697 1.9498 13.4438 2.05171C13.5178 2.15362 13.618 2.32276 13.6663 2.42754C13.7147 2.53233 13.7803 2.72461 13.8121 2.85481C13.8468 2.99706 13.87 3.19265 13.8701 3.3449C13.8702 3.48422 13.8488 3.69094 13.8226 3.80425C13.7963 3.91758 13.7397 4.09498 13.6968 4.19847C13.6539 4.30197 13.5637 4.46434 13.4963 4.55931C13.4289 4.65429 12.985 5.12052 12.5098 5.59538L11.6458 6.45877L10.7289 5.55221C10.1038 4.93411 9.78068 4.5931 9.71347 4.48049C9.65923 4.38966 9.57678 4.20679 9.53022 4.07414C9.48366 3.9415 9.43091 3.72594 9.41298 3.59511C9.38931 3.42231 9.3891 3.29091 9.41228 3.11474C9.4298 2.98138 9.48254 2.7628 9.52948 2.62903C9.57645 2.49526 9.65923 2.31147 9.71347 2.22065C9.7677 2.12979 9.92432 1.9445 10.0615 1.80887C10.2162 1.65596 10.3867 1.52069 10.51 1.45295C10.6195 1.39283 10.7775 1.31774 10.8612 1.28611C10.9449 1.25448 11.1057 1.21186 11.2185 1.19137C11.3313 1.17088 11.5159 1.15312 11.6287 1.15188C11.7415 1.15067 11.9545 1.17413 12.1019 1.204ZM4.5525 5.43862C4.43163 5.45335 4.22196 5.48573 4.08653 5.51057C3.95112 5.53541 3.7006 5.60148 3.5298 5.65746C3.35904 5.71341 3.08744 5.82061 2.92629 5.8957C2.76513 5.97076 2.5212 6.10349 2.38421 6.19066C2.24723 6.27784 2.03626 6.42735 1.9154 6.52292C1.79453 6.6185 1.58333 6.81153 1.44602 6.95188C1.30874 7.09221 1.13593 7.28475 1.06203 7.37972C0.988102 7.4747 0.864392 7.64948 0.787096 7.76813C0.709799 7.88679 0.582661 8.11225 0.504544 8.26919C0.426398 8.4261 0.310102 8.71266 0.246049 8.90603C0.181997 9.09937 0.109506 9.37076 0.0849514 9.50911C0.0603971 9.64748 0.0279313 9.92106 0.0128119 10.1171C-0.00427065 10.3389 -0.00427065 10.6082 0.0128119 10.83C0.0279313 11.026 0.0603971 11.2996 0.0849514 11.438C0.109506 11.5763 0.183667 11.853 0.249712 12.0529C0.315786 12.2527 0.440873 12.5556 0.527722 12.7259C0.61457 12.8963 0.742675 13.1229 0.812412 13.2296C0.882178 13.3362 1.01846 13.5212 1.11527 13.6407C1.21208 13.7601 1.40866 13.97 1.55206 14.1071C1.69549 14.2442 1.89195 14.4166 1.98865 14.4902C2.08534 14.5638 2.25016 14.6782 2.35491 14.7445C2.45967 14.8108 2.63354 14.9132 2.74134 14.9721C2.84911 15.031 3.09292 15.1382 3.28315 15.2104C3.47337 15.2826 3.73459 15.3662 3.86366 15.3962C3.99273 15.4262 4.23341 15.4705 4.39847 15.4947C4.56941 15.5198 4.89577 15.5388 5.15655 15.5388C5.41437 15.5388 5.74418 15.5198 5.91126 15.4953C6.07446 15.4714 6.31344 15.4271 6.44231 15.3969C6.57115 15.3666 6.67974 15.345 6.68364 15.3488C6.6875 15.3526 6.65873 15.4972 6.6197 15.6703C6.58067 15.8433 6.53291 16.1125 6.51357 16.2685C6.49192 16.443 6.48447 16.731 6.49426 17.0168C6.50452 17.3161 6.53268 17.594 6.57343 17.798C6.60824 17.9721 6.65747 18.1858 6.68284 18.2728C6.70822 18.3599 6.77441 18.5477 6.82994 18.6901C6.88546 18.8326 7.00152 19.0792 7.08787 19.2381C7.1742 19.3971 7.32788 19.6431 7.42935 19.785C7.55016 19.9537 7.88683 20.3161 8.40435 20.8342C8.83909 21.2695 9.73579 22.1599 10.397 22.8128C11.0582 23.4658 11.6128 24 11.6295 24C11.6462 24 12.5306 23.142 13.5948 22.0933C14.6589 21.0447 15.5963 20.1025 15.6778 19.9996C15.7593 19.8967 15.8986 19.7025 15.9874 19.5679C16.0761 19.4334 16.2023 19.2183 16.2676 19.09C16.333 18.9618 16.4461 18.6833 16.519 18.4713C16.5919 18.2593 16.6777 17.9357 16.7098 17.7522C16.7419 17.5688 16.7772 17.2703 16.7882 17.0889C16.8005 16.8877 16.7944 16.6249 16.7728 16.4151C16.7533 16.226 16.7066 15.9287 16.669 15.7546C16.6314 15.5805 16.5906 15.4133 16.5784 15.383C16.5591 15.3355 16.5657 15.3307 16.627 15.3478C16.666 15.3587 16.8561 15.4019 17.0495 15.4439C17.3723 15.5139 17.4574 15.5203 18.0896 15.5223C18.6879 15.5241 18.8231 15.5159 19.12 15.4598C19.308 15.4243 19.6179 15.3417 19.8086 15.2761C19.9993 15.2106 20.274 15.0988 20.4191 15.0277C20.5641 14.9566 20.7751 14.8401 20.8879 14.7689C21.0007 14.6976 21.2054 14.5515 21.3428 14.4441C21.4802 14.3368 21.6979 14.1409 21.8267 14.0089C21.9554 13.8768 22.1214 13.6911 22.1955 13.5961C22.2696 13.5012 22.3994 13.3199 22.484 13.1932C22.5686 13.0666 22.702 12.8289 22.7806 12.665C22.8591 12.5011 22.9694 12.2272 23.0256 12.0564C23.0818 11.8856 23.1423 11.6829 23.16 11.6061C23.1776 11.5293 23.211 11.318 23.234 11.1366C23.2571 10.9551 23.276 10.6568 23.276 10.4735C23.276 10.2903 23.257 9.99059 23.2339 9.80752C23.2108 9.62445 23.1706 9.39183 23.1446 9.29058C23.1186 9.18933 23.0565 8.98347 23.0067 8.8331C22.9568 8.68273 22.8437 8.41723 22.7553 8.24311C22.6669 8.069 22.5115 7.80351 22.4099 7.65313C22.3083 7.50276 22.125 7.26673 22.0026 7.12865C21.8802 6.99054 21.6651 6.77929 21.5244 6.65922C21.3839 6.53913 21.1507 6.36274 21.0063 6.26722C20.862 6.1717 20.6115 6.02817 20.4496 5.94831C20.2878 5.86842 20.0169 5.75448 19.8477 5.6951C19.6785 5.63573 19.4141 5.56036 19.26 5.52761C19.106 5.49486 18.8225 5.45287 18.63 5.43427C18.4251 5.41447 18.1163 5.4078 17.8845 5.41816C17.667 5.42788 17.3373 5.46262 17.152 5.4954C16.9667 5.52815 16.6588 5.60612 16.4679 5.66866C16.277 5.73117 15.9869 5.8487 15.8233 5.92977C15.6597 6.01088 15.4335 6.13546 15.3207 6.20663C15.2079 6.27781 15.0233 6.40792 14.9105 6.49578C14.7977 6.58365 14.0171 7.3289 13.1758 8.15188L11.6463 9.6482L11.3149 9.33418C11.1326 9.16148 10.4298 8.48058 9.75311 7.82106C9.07646 7.16157 8.44962 6.56399 8.36019 6.49311C8.27073 6.42225 8.08614 6.29318 7.94997 6.20629C7.81378 6.1194 7.58371 5.99021 7.43867 5.91924C7.29363 5.84824 7.01673 5.73692 6.82334 5.67188C6.62996 5.60681 6.3135 5.5264 6.12011 5.49313C5.88638 5.45292 5.60151 5.42915 5.27038 5.42224C4.99641 5.41652 4.67337 5.42388 4.5525 5.43862ZM6.04587 6.65986C6.16618 6.68654 6.40261 6.75926 6.57129 6.82148C6.73995 6.88373 6.98432 6.99462 7.11436 7.06792C7.24437 7.14126 7.44306 7.27117 7.55587 7.35664C7.66868 7.44212 8.44428 8.18124 9.27943 8.99913L10.7979 10.4862L9.29408 11.9575C8.46699 12.7666 7.68981 13.5023 7.56704 13.5922C7.44424 13.6821 7.23986 13.8139 7.11287 13.8851C6.98585 13.9563 6.75009 14.0652 6.58893 14.1271C6.42778 14.189 6.15747 14.2689 5.98826 14.3046C5.73337 14.3585 5.59014 14.3696 5.15318 14.3696C4.71621 14.3696 4.57298 14.3585 4.31809 14.3046C4.14888 14.2689 3.87802 14.1889 3.71619 14.1267C3.55436 14.0646 3.3019 13.9441 3.15522 13.859C3.00853 13.7738 2.79809 13.6331 2.68763 13.5463C2.57716 13.4595 2.38788 13.2862 2.26701 13.1613C2.14611 13.0364 1.98636 12.85 1.912 12.7471C1.83763 12.6443 1.71676 12.45 1.64342 12.3154C1.57005 12.1809 1.46849 11.9543 1.41772 11.8118C1.36694 11.6693 1.29928 11.4492 1.26731 11.3225C1.22746 11.1646 1.20417 10.9477 1.19312 10.6318C1.18111 10.2881 1.18881 10.0958 1.2236 9.87323C1.24923 9.70924 1.32357 9.41822 1.38885 9.22652C1.45411 9.03479 1.56531 8.77396 1.63598 8.64686C1.70665 8.51977 1.82948 8.32514 1.90895 8.21434C1.98841 8.10353 2.15092 7.91019 2.27009 7.78468C2.38925 7.6592 2.61733 7.46091 2.77691 7.34407C2.93733 7.22662 3.21247 7.06263 3.39223 6.97733C3.57109 6.89245 3.8186 6.7896 3.94225 6.74876C4.06593 6.70792 4.2769 6.65571 4.41107 6.63272C4.58681 6.60261 4.81897 6.59378 5.24108 6.60115C5.65121 6.60828 5.89277 6.62593 6.04587 6.65986ZM18.8536 6.6347C19.0055 6.66023 19.2731 6.73117 19.4481 6.79242C19.6232 6.85363 19.8762 6.9625 20.0104 7.03434C20.1446 7.1062 20.3574 7.24 20.4833 7.33169C20.6091 7.42335 20.8215 7.60659 20.9553 7.73887C21.089 7.87117 21.2685 8.07757 21.3541 8.19759C21.4398 8.3176 21.5648 8.51471 21.6319 8.63561C21.6991 8.75652 21.7926 8.95924 21.8397 9.08607C21.8868 9.2129 21.9521 9.4196 21.9848 9.5454C22.0175 9.67119 22.0582 9.92825 22.0753 10.1166C22.0923 10.305 22.0983 10.5757 22.0884 10.7182C22.0786 10.8606 22.0513 11.0839 22.0278 11.2144C22.0042 11.3448 21.9382 11.5834 21.881 11.7446C21.8239 11.9058 21.7304 12.1293 21.6732 12.2413C21.6161 12.3533 21.5086 12.5341 21.4345 12.6431C21.3603 12.7521 21.2046 12.9481 21.0884 13.0786C20.9723 13.2091 20.7785 13.3951 20.6577 13.492C20.537 13.5889 20.3284 13.7353 20.1943 13.8173C20.0601 13.8993 19.8493 14.0084 19.726 14.0598C19.6026 14.1111 19.3963 14.1858 19.2675 14.2258C19.1387 14.2657 18.877 14.32 18.686 14.3463C18.4348 14.3809 18.2333 14.3897 17.9578 14.3779C17.7483 14.3689 17.4714 14.3413 17.3425 14.3165C17.2135 14.2917 17.0224 14.2438 16.9176 14.21C16.8128 14.1761 16.6282 14.107 16.5074 14.0563C16.3865 14.0056 16.1953 13.9088 16.0825 13.8412C15.9697 13.7736 15.7719 13.6368 15.643 13.5372C15.5141 13.4376 14.7493 12.7069 13.9435 11.9134L12.4785 10.4706L14.0191 8.96833C15.0245 7.98795 15.6408 7.40908 15.793 7.30205C15.9213 7.21185 16.1379 7.08004 16.2742 7.00916C16.4105 6.93827 16.6605 6.834 16.8297 6.77745C16.9989 6.72093 17.2428 6.65637 17.3718 6.63404C17.5045 6.61105 17.8168 6.59234 18.0918 6.59087C18.4161 6.58915 18.6692 6.60371 18.8536 6.6347ZM13.5927 13.2596C13.5863 13.2659 13.4517 13.2505 13.2935 13.2255C13.1353 13.2004 12.907 13.1661 12.7861 13.1492C12.6653 13.1323 12.2615 13.1108 11.8889 13.1014C11.4575 13.0907 11.0744 13.0969 10.8341 13.1187C10.6265 13.1374 10.2867 13.1781 10.0788 13.209C9.87099 13.2399 9.68648 13.2652 9.66878 13.2652C9.65105 13.2652 10.0847 12.8248 10.6325 12.2867L11.6284 11.3082L12.6164 12.2782C13.1597 12.8117 13.5991 13.2533 13.5927 13.2596ZM12.3173 14.2733C12.5026 14.2893 12.8383 14.3287 13.0631 14.3609C13.288 14.393 13.6975 14.4762 13.9732 14.5456C14.2488 14.615 14.612 14.7216 14.7803 14.7825L15.0863 14.8933L15.2215 15.1584C15.2959 15.3042 15.3903 15.5239 15.4312 15.6466C15.4722 15.7693 15.5286 15.9992 15.5567 16.1575C15.5872 16.3298 15.6084 16.6013 15.6093 16.8339C15.6102 17.0475 15.6011 17.271 15.589 17.3304L15.5671 17.4383L15.4055 17.3368C15.3167 17.281 15.1096 17.1656 14.9454 17.0804C14.7811 16.9951 14.4997 16.8662 14.3199 16.7939C14.1402 16.7216 13.8039 16.6096 13.5728 16.5451C13.3416 16.4805 12.981 16.4015 12.7715 16.3696C12.5433 16.3348 12.1673 16.3054 11.8338 16.2962C11.4284 16.285 11.1641 16.2933 10.8613 16.3265C10.6325 16.3517 10.3435 16.3929 10.2191 16.4181C10.0946 16.4434 9.83348 16.5093 9.63872 16.5647C9.44398 16.6201 9.15598 16.7162 8.99872 16.7783C8.84146 16.8404 8.5808 16.9562 8.41947 17.0357C8.25816 17.1152 8.03272 17.2391 7.9185 17.311C7.80429 17.3829 7.70235 17.4334 7.69195 17.4232C7.68158 17.413 7.67346 17.1564 7.6739 16.8531C7.67457 16.3898 7.6853 16.2539 7.74071 16.0048C7.77701 15.8417 7.86017 15.5762 7.92551 15.4148C7.99085 15.2535 8.07151 15.0737 8.10474 15.0154C8.15895 14.9203 8.19745 14.8976 8.47587 14.796C8.64673 14.7337 8.95793 14.6367 9.16744 14.5805C9.37694 14.5244 9.64724 14.4584 9.76811 14.4338C9.88898 14.4092 10.1329 14.3691 10.3102 14.3446C10.4875 14.3201 10.7578 14.2891 10.9109 14.2758C11.064 14.2625 11.3672 14.2499 11.5848 14.2479C11.8023 14.2458 12.132 14.2573 12.3173 14.2733ZM12.2148 17.4675C12.392 17.4835 12.6426 17.5168 12.7715 17.5415C12.9004 17.5661 13.1641 17.6315 13.3575 17.6867C13.5509 17.7419 13.8557 17.8507 14.0349 17.9284C14.2141 18.0061 14.4647 18.1301 14.5916 18.2038C14.7187 18.2775 14.905 18.3956 15.0057 18.4662C15.1064 18.5367 15.1888 18.6065 15.1888 18.6212C15.1888 18.636 15.1238 18.7509 15.0444 18.8767C14.965 19.0024 14.8278 19.1932 14.7395 19.3007C14.6512 19.4081 14.4209 19.6498 14.2277 19.8379L13.8764 20.1798L13.7781 20.1083C13.724 20.069 13.5809 19.9843 13.4601 19.9202C13.3392 19.8561 13.1216 19.7625 12.9766 19.7123C12.8315 19.6621 12.614 19.595 12.4931 19.5632C12.331 19.5205 12.1427 19.5014 11.7752 19.4904C11.389 19.4787 11.2146 19.486 10.9988 19.5229C10.8457 19.549 10.5864 19.6144 10.4227 19.6682C10.259 19.722 10.0282 19.8138 9.90993 19.8721C9.79164 19.9304 9.62383 20.0242 9.53704 20.0806L9.37923 20.1831L9.01367 19.8108C8.81257 19.606 8.57922 19.3542 8.49503 19.2514C8.41085 19.1485 8.28049 18.9635 8.2053 18.8402C8.13015 18.717 8.06864 18.612 8.06864 18.607C8.06864 18.6019 8.19719 18.5135 8.35433 18.4104C8.51147 18.3073 8.72572 18.177 8.83047 18.1208C8.93523 18.0646 9.15279 17.9636 9.31394 17.8964C9.4751 17.8291 9.78068 17.725 9.993 17.665C10.2053 17.605 10.5218 17.5362 10.6962 17.512C10.8707 17.4878 11.0662 17.4635 11.1306 17.4579C11.1951 17.4524 11.3929 17.4457 11.5701 17.4431C11.7474 17.4404 12.0375 17.4514 12.2148 17.4675ZM12.3466 20.72C12.4675 20.7546 12.6601 20.8252 12.7747 20.8768C12.8893 20.9284 12.9908 20.9829 13.0002 20.9978C13.0096 21.0128 12.7047 21.3317 12.3228 21.7067L11.6283 22.3883L10.9289 21.701L10.2295 21.0136L10.3578 20.9409C10.4283 20.9009 10.5849 20.8343 10.7057 20.7929C10.8266 20.7515 11.0112 20.6987 11.116 20.6756C11.2515 20.6457 11.4247 20.6369 11.7166 20.6454C12.0242 20.6542 12.1819 20.6729 12.3466 20.72Z" fill="#EFBB40"/>
</svg>
