<svg width="14" height="14" viewBox="0 0 14 14" fill="none" xmlns="http://www.w3.org/2000/svg">
<path fill-rule="evenodd" clip-rule="evenodd" d="M3.5 0C1.567 0 0 1.567 0 3.5C0 5.433 1.567 7 3.5 7C1.567 7 0 8.567 0 10.5C0 12.433 1.567 14 3.5 14C5.433 14 7 12.433 7 10.5C7 12.433 8.567 14 10.5 14C12.433 14 14 12.433 14 10.5C14 8.567 12.433 7 10.5 7C12.433 7 14 5.433 14 3.5C14 1.567 12.433 0 10.5 0C8.567 0 7 1.567 7 3.5C7 1.567 5.433 0 3.5 0ZM7 3.5C7 5.433 8.567 7 10.5 7C8.567 7 7 8.567 7 10.5C7 8.567 5.433 7 3.5 7C5.433 7 7 5.433 7 3.5Z" fill="#C3C5CA"/>
</svg>
