<svg width="16" height="16" viewBox="0 0 16 16" fill="none" xmlns="http://www.w3.org/2000/svg">
<path fill-rule="evenodd" clip-rule="evenodd" d="M9.39316 12.8346C9.28946 13.9787 9.19689 15 8 15C4.13401 15 1 11.866 1 8C1 4.13401 4.13401 1 8 1C11.866 1 15 4.13401 15 8C15 9.01483 13.7629 9.26735 12.4965 9.52585C11.5418 9.72075 10.5704 9.91904 10.1 10.45C9.55338 11.067 9.4702 11.9847 9.39316 12.8346ZM10.3333 4.66663C10.3333 5.21893 9.88555 5.66663 9.33325 5.66663C8.78095 5.66663 8.33325 5.21893 8.33325 4.66663C8.33325 4.11433 8.78095 3.66663 9.33325 3.66663C9.88555 3.66663 10.3333 4.11433 10.3333 4.66663ZM5.33325 7C5.88555 7 6.33325 6.5523 6.33325 6C6.33325 5.4477 5.88555 5 5.33325 5C4.78095 5 4.33325 5.4477 4.33325 6C4.33325 6.5523 4.78095 7 5.33325 7ZM6.66675 10.3334C6.66675 10.8857 6.21905 11.3334 5.66675 11.3334C5.11445 11.3334 4.66675 10.8857 4.66675 10.3334C4.66675 9.78107 5.11445 9.33337 5.66675 9.33337C6.21905 9.33337 6.66675 9.78107 6.66675 10.3334Z" fill="#6A6D7A"/>
</svg>
