<svg width="12" height="13" viewBox="0 0 12 13" fill="none" xmlns="http://www.w3.org/2000/svg">
<path fill-rule="evenodd" clip-rule="evenodd" d="M5.25984 2.50858C3.46409 2.50858 2.00834 3.96433 2.00834 5.76009C2.00834 7.55585 3.46409 9.01159 5.25984 9.01159C6.09347 9.01159 6.85383 8.69788 7.42929 8.18207L7.68183 7.92954C8.19764 7.35407 8.51135 6.59372 8.51135 5.76009C8.51135 3.96433 7.0556 2.50858 5.25984 2.50858ZM9.62135 8.70098C10.1885 7.86149 10.5197 6.84947 10.5197 5.76009C10.5197 2.85516 8.16478 0.500244 5.25984 0.500244C2.35491 0.500244 0 2.85516 0 5.76009C0 8.66502 2.35491 11.0199 5.25984 11.0199C6.34948 11.0199 7.36173 10.6886 8.20134 10.1212L9.86984 11.7897L10.5799 12.4997L12 11.0796L11.2899 10.3696L9.62135 8.70098Z" fill="#1A1A1C"/>
</svg>
