<svg width="16" height="16" viewBox="0 0 16 16" fill="none" xmlns="http://www.w3.org/2000/svg">
<path fill-rule="evenodd" clip-rule="evenodd" d="M4.5 1C2.567 1 1 2.567 1 4.5C1 6.433 2.567 8 4.5 8C2.567 8 1 9.567 1 11.5C1 13.433 2.567 15 4.5 15C6.433 15 8 13.433 8 11.5C8 13.433 9.567 15 11.5 15C13.433 15 15 13.433 15 11.5C15 9.567 13.433 8 11.5 8C13.433 8 15 6.433 15 4.5C15 2.567 13.433 1 11.5 1C9.567 1 8 2.567 8 4.5C8 2.567 6.433 1 4.5 1ZM8 4.5C8 6.433 9.567 8 11.5 8C9.567 8 8 9.567 8 11.5C8 9.567 6.433 8 4.5 8C6.433 8 8 6.433 8 4.5Z" fill="#C3C5CA"/>
</svg>
